<?xml version="1.0" encoding="UTF-8"?>
<svg id="Camada_1" xmlns="http://www.w3.org/2000/svg" version="1.1" viewBox="0 0 540 540">
  <!-- Generator: Adobe Illustrator 30.2.1, SVG Export Plug-In . SVG Version: 2.1.1 Build 1)  -->
  <defs>
    <style>
      .st0 {
        fill: #01015c;
      }

      .st1 {
        fill: #9898fe;
      }

      .st2 {
        fill: #00005b;
      }
    </style>
  </defs>
  <path class="st2" d="M426.05,495.95l-311.73.22c-41.87.03-77.32-37.43-77.31-78.69l.03-294.8c0-42.24,36.51-78.85,78.9-78.85l307.62.02c43.5,0,79.03,37.62,79.09,80.44l.36,288.3c.05,42.14-31.86,83.32-76.94,83.35Z"/>
  <path class="st1" d="M223.95,314.39l-72.16-.18-16.12,48.34c-14.51-.29-27.85,1.39-41.97-.95l58.17-166.95c5.27-11.12,8.3-21.57,8.69-33.9l53.34-.06,11.98,32.36,60.46,169.31-45.72.29-16.69-48.26Z"/>
  <path class="st1" d="M369.35,328.48c18.11,3.58,35.38.23,53.32-5.17.82,11.22.59,21.95.12,34.52-23.63,9.65-50.73,11.68-76.21,5.16-51.23-13.12-63.56-78.41-39.81-121.76,14.18-25.88,39.66-37.6,68.23-35.94,28.38,1.65,50.66,17.79,58.25,45.66,3.88,14.23,4.18,29.5,1.26,44.35-11.48,2.58-22.16.99-33.57.96l-61.44-.16c.78,16.88,12.58,28.97,29.85,32.39Z"/>
  <polygon class="st2" points="212.15 274.65 163.37 275.35 187.34 197.02 212.15 274.65"/>
  <path class="st0" d="M395.58,263.53c5.94,7.88-51.14,3.6-56.06,4.27.52-15.24,11.62-28.01,27.3-28.88s27.75,9.37,28.76,24.61Z"/>
</svg>