<?xml version="1.0" encoding="UTF-8"?>
<svg id="Camada_1" xmlns="http://www.w3.org/2000/svg" version="1.1" viewBox="0 0 540 540">
  <!-- Generator: Adobe Illustrator 30.2.1, SVG Export Plug-In . SVG Version: 2.1.1 Build 1)  -->
  <defs>
    <style>
      .st0 {
        fill: #00005a;
      }

      .st1 {
        fill: #99f;
      }

      .st2 {
        fill: #00005b;
      }
    </style>
  </defs>
  <path class="st0" d="M420.92,497.85l-302.27-.06c-45.17,0-82.33-36.86-82.33-82.1l-.02-291.25c0-45.49,37.28-82.3,82.68-82.3l302.58.05c44.98,0,82.14,36.85,82.14,81.91l-.02,291.89c0,45.4-37.62,81.85-82.76,81.84Z"/>
  <path class="st1" d="M249.89,293.36c-16.32,5.59-33.34,6.44-50.47,5.94l-9.86-.29v62.46c0,1.48-.76,2.74-2.36,2.74l-37.7.02c-1.22,0-2.23-.78-2.23-2.17v-200.95c0-1.28.86-1.89,1.89-1.91l12.6-.25,11.96-.3,14.4-.33,20.55-.26c14-.18,27.63,1.24,40.86,5.88,19.09,6.7,34,19.82,40.83,39.14,3.28,9.28,4.54,18.75,4.1,28.58-.71,16.14-4.95,30.38-15.78,42.57-7.83,8.83-17.63,15.27-28.81,19.11Z"/>
  <path class="st1" d="M324.48,364.27c-1.64,0-3.19-.7-3.19-2.5l-.06-114.67-.59-25.94-.74-11.23c-.05-.81.5-1.86,1.44-1.86h34.47c2.23.06,3.81,1.5,4.4,3.62,1.55,5.6,2.15,11.17,2.42,17.28,6.26-7.16,13.36-12.72,21.66-17.1,9.13-4.82,19.09-7.23,29.45-7.04,1.11.02,1.98,1.18,1.98,2.28l.03,38.33c0,1.37-.86,2.39-2.37,2.35-12.39-.32-24.54,1.67-36.04,6.32-4.61,1.87-8.63,4.31-12.04,8.04l-.02,99.71c0,1.34-.8,2.36-2.11,2.36l-38.69.05Z"/>
  <path class="st2" d="M250.95,238.78c-2.2,9.4-9.27,15.57-17.84,19.31-8.94,3.31-18.07,4.65-27.63,4.59-5.27-.04-10.31.09-15.69-.47v-65.37c2.38-.46,4.65-.3,7.06-.3l19.18-.03c6.13,0,11.82,1.48,17.49,3.58,16.32,6.05,21.18,22.71,17.43,38.68Z"/>
</svg>