<?xml version="1.0" encoding="UTF-8"?>
<svg id="Camada_1" xmlns="http://www.w3.org/2000/svg" version="1.1" viewBox="0 0 540 540">
  <!-- Generator: Adobe Illustrator 30.2.1, SVG Export Plug-In . SVG Version: 2.1.1 Build 1)  -->
  <defs>
    <style>
      .st0 {
        fill: #320000;
      }

      .st1 {
        fill: #300;
      }

      .st2 {
        fill: #ff9a00;
      }
    </style>
  </defs>
  <path class="st0" d="M504.96,415.65c0,45.5-36.41,83.34-82.05,83.34l-306.13-.04c-45.57,0-81.73-38.05-81.73-83.13V124.15c0-44.86,35.98-83.08,81.41-83.09l306.77-.04c45.56,0,81.73,38.09,81.73,83.14v291.49Z"/>
  <path class="st2" d="M262.69,315.92h-72.81s-14.86,46.24-14.86,46.24c-.61,1.74-1.99,2.62-3.83,2.62l-37.02-.02c-.83,0-1.54-.35-1.84-.92-.25-.46-.54-1.26-.24-2.11l63.08-181.75c2.21-6.36,3.3-12.83,3.2-19.54-.02-1.18.77-2.13,2.02-2.13h50.64c.88.01,1.73.38,2.04,1.25l42.24,118.8,29.76,83.7c.28.77-.03,1.51-.28,2.02-.21.43-.93.68-1.76.68h-41.49c-1.32-.07-2.15-.67-2.69-1.88l-16.16-46.98Z"/>
  <path class="st2" d="M387.13,364.77h-38.77c-1.59,0-2.46-.99-2.66-2.61v-151.41c0-1.52.9-2.62,2.35-2.62l38.93-.02c1.48,0,2.33.85,2.52,2.36v151.88c-.29,1.31-.77,2.41-2.36,2.41Z"/>
  <path class="st2" d="M392.4,166.53c.04,14.91-10.05,25.45-24.9,25.22-14.19.43-24.45-11.03-23.99-24.88-.3-8.14,3.56-15.28,10.06-20.03,4.49-3.28,9.88-4.65,15.54-4.4,4.31.19,8.55.93,12.23,3.22,7.24,4.52,11.03,12.41,11.06,20.87Z"/>
  <path class="st1" d="M201.26,276.21l8.29-25.29,10.27-33.18c2.48-7.68,4.13-15.16,6.15-23.32l8.17,28.14,16.85,53.61-49.74.04Z"/>
</svg>