<?xml version="1.0" encoding="UTF-8"?>
<svg id="Camada_1" xmlns="http://www.w3.org/2000/svg" version="1.1" viewBox="0 0 540 540">
  <!-- Generator: Adobe Illustrator 30.2.1, SVG Export Plug-In . SVG Version: 2.1.1 Build 1)  -->
  <defs>
    <style>
      .st0 {
        fill: #e97600;
      }

      .st1 {
        fill: #265787;
      }

      .st2 {
        fill: #16598c;
      }

      .st3 {
        fill: #015a91;
      }
    </style>
  </defs>
  <path class="st3" d="M272.2,446.18c-2.04-7.68-11.29-7.53-17.11-5.8-5.42,1.61-9.23,6.25-9.26,12.04l-.14,25.59h-16.57s.02-45.82.02-45.82h16.52c.27,1.21-.16,2.22.38,3.46,6.01-5.94,13.9-8.86,22.32-8.47,10.92.51,20.52,5.09,21.16,17.3l.13,33.52h-16.61s-.06-25.81-.06-25.81c-.11-2.09-.25-4.01-.78-6.01Z"/>
  <path class="st3" d="M449.3,477.95l-16.65.08-.03-45.78,16.5-.08.4,2.58c5.93-6.26,12.03-9.29,20.97-7.55v12.82c-2.88.02-5.53-.19-8.26.11-7.18.78-12.12,5.99-12.79,13.24l-.13,24.58Z"/>
  <polygon class="st3" points="156.46 477.83 139.84 478.03 139.84 415.61 156.43 415.61 156.46 477.83"/>
  <path class="st0" d="M448.17,190.87c-7.03-10.72-15.23-20.34-25.41-28.21l-35.89-27.76-92.69-70.59c-8.83-6.73-22.56-4.28-30.53,1.93-3.88,3.02-5.49,6.64-6.14,11.04.11,4.31,1.81,8.11,5.23,10.89l51.61,41.96-155.19.26c-5.95-.2-11.17,1-16.29,3.67-5.82,2.76-10.51,7.56-12.61,13.66-2.37,6.88.04,13.95,6.04,17.94,3.92,2.61,8.31,3.72,13.21,3.72l78.96.02-19.1,14.75-125.15,95.67c-7.3,5.58-11.6,15.17-11.51,23.87.1,9.43,6.28,16.67,14.7,19.32,9.92,3.12,21.55-.18,29.43-6.61l77.63-63.35c-.03,4.31-.97,7.76-.79,11.64.86,18.2,6.7,35.07,15.97,50.77,7.78,13.18,18.15,24.71,30.25,34.11,25.19,19.57,55.02,29.75,86.92,30.45,29.94.65,59.2-7.43,84.09-23.95,14.02-9.31,25.58-20.4,35.23-34.19,27.72-39.62,28.58-90.48,2.03-130.98ZM396.59,291.36c-35.25,40.69-103.24,38.9-135.61-4.08-16.67-22.13-18.9-51.66-5.45-75.94,14.3-25.81,42.34-41.06,71.65-42.05,16.09-.54,31.64,2.79,45.79,10.35,11.61,6.2,21.45,14.74,28.84,25.59,5.06,7.43,8.74,15.4,10.55,24.18,4.64,22.58-.53,44.35-15.78,61.95Z"/>
  <path class="st3" d="M121.37,431.23c-9.89-4.61-26.06-5.49-35.05,2.81l-.16-18.46-16.65-3.93v66.35s16.63,0,16.63,0l.19-4.36c8.75,7.75,24.35,7.35,34.35,2.94,9.5-4.19,15.36-12.97,15.06-23.58-.27-9.8-5.66-17.7-14.38-21.77ZM108.45,467.03c-4.11,1.26-8.4,1.31-12.52.1-6.12-1.81-9.82-7.14-9.71-13.52.1-5.85,3.35-10.77,8.93-12.7,4.35-1.51,9.03-1.49,13.42-.14,5.77,1.78,9.12,6.84,9.25,12.83.13,6.24-3.36,11.59-9.36,13.43Z"/>
  <path class="st3" d="M359.99,411.72l-16.69,3.87-.15,18.4c-8.81-8.15-24.6-7.33-34.42-3.03-9.42,4.12-15.09,12.83-14.96,23.06.13,9.55,5.18,17.71,13.95,22.03,10.25,5.04,26.64,5.47,35.4-2.38l.21,4.35,16.67-.04v-66.25ZM334.8,466.68c-4.61,1.77-9.55,1.7-14.03.23-6.02-1.97-9.23-7.36-9.03-13.54.18-5.56,3.13-10.39,8.53-12.36,4.51-1.64,9.53-1.71,14.07-.15,5.78,1.98,9.05,7.12,8.96,13.14-.08,5.61-2.98,10.56-8.5,12.67Z"/>
  <path class="st3" d="M411.96,429.13c-13.76-4.95-36.27-3.56-44.48,10.75-4.64,8.09-4.64,18.27-.02,26.37,3.16,5.53,8.39,9.2,14.47,11.18,12.89,4.19,31.63,3.11,41.24-8.2l-13.64-7.39c-3.36,7.13-12.49,8.28-18.7,6.26-4.81-1.56-7.96-5.83-7.94-10.91l45.6-.08c.75-12.61-4.55-23.66-16.53-27.97ZM383.43,446.8c.14-4.05,3.04-7.47,7-8.85,4.36-1.52,9.12-1.38,13.36.22,3.43,1.63,6.12,4.32,6.42,8.58l-26.78.05Z"/>
  <path class="st3" d="M209.72,429.65c-9.77-4.29-24.4-3.99-34.24.24-9.53,4.1-14.85,12.73-14.97,22.93-.13,10.94,5.83,20.16,16.27,24.09,12.84,4.93,33.07,3.98,42.87-7.63l-13.63-7.4c-3.47,7.14-12.6,8.33-18.9,6.19-4.71-1.6-7.89-5.88-7.72-10.88l45.43-.02c.85-11.91-3.65-22.48-15.12-27.52ZM179.82,446.82c.35-4.29,3.26-7.53,7.22-8.89,4.47-1.53,9.34-1.32,13.66.44,3.25,1.67,5.63,4.31,5.99,8.41l-26.86.03Z"/>
  <path class="st1" d="M277.54,245.46c.34-2.72.32-5.73,0-8.48,1.99-19.29,15.84-34.41,33.81-40.68,23.45-8.18,50.88-.79,64.94,19.94,10.19,15.02,10.4,34.32.5,49.53-14.83,22.8-45.62,29.97-70.24,18.77-15.62-7.11-27.74-21.97-29.01-39.08Z"/>
  <path class="st2" d="M277.54,245.46c-.05-.62.01-.94.01-1.24-.35-2.04-.34-4.38,0-6.41l-.02-.83c.21-.16.33.17.4.45v7.58c-.06.28-.17.62-.39.45Z"/>
  <path class="st1" d="M277.56,244.22c-.31.03-.41-.36-.41-.78v-4.85c0-.42.1-.81.41-.78v6.41Z"/>
</svg>