<?xml version="1.0" encoding="UTF-8"?>
<svg id="Camada_1" xmlns="http://www.w3.org/2000/svg" version="1.1" viewBox="0 0 540 540">
  <!-- Generator: Adobe Illustrator 30.2.1, SVG Export Plug-In . SVG Version: 2.1.1 Build 1)  -->
  <defs>
    <style>
      .st0 {
        fill: #48021f;
      }

      .st1 {
        fill: #49021f;
      }

      .st2 {
        fill: #753f55;
      }

      .st3 {
        fill: #764157;
      }

      .st4 {
        fill: #5c1d36;
      }

      .st5 {
        fill: #fe3366;
      }
    </style>
  </defs>
  <path class="st0" d="M424.98,494.51h-1.8c-.75-.14-1.47-.26-2.16-.36-.57.1-1.17.22-1.8.36H120.66c-.62-.14-1.22-.26-1.8-.36-.78.1-1.62.22-2.52.36h-2.16c-19.09-.81-37.59-9.87-51.1-23.37-13.5-13.5-22.57-31.99-23.37-51.09v-2.16c.31-1.05.31-2.18,0-3.24V125.45c.31-1.05.31-2.18,0-3.24v-2.16c.64-18.25,9.7-36.58,22.02-49.83,14.1-15.16,33.12-24.45,54.01-24.51,102.77-.3,205.71-.29,308.48-.02,39.55.1,75.72,36.27,75.83,75.82.27,98.94.29,198.04-.02,296.98-.06,18.76-7.57,36.06-20.24,49.72-13.81,14.91-34.31,25.75-54.82,26.3Z"/>
  <path class="st2" d="M39.73,125.45v-3.24c.62.83.62,2.41,0,3.24Z"/>
  <path class="st2" d="M39.73,417.89v-3.24c.62.83.62,2.41,0,3.24Z"/>
  <path class="st3" d="M118.86,494.15c.31.1.31.22,0,.36h-2.52c.58-.7,1.68-.29,2.52-.36Z"/>
  <path class="st3" d="M423.19,494.51h-2.16c-.31-.1-.31-.22,0-.36.72.03,1.7-.29,2.16.36Z"/>
  <path class="st4" d="M120.66,494.51h-1.8v-.36c.59-.05,1.46-.2,1.8.36Z"/>
  <path class="st4" d="M421.03,494.15v.36h-1.8c.34-.58,1.2-.39,1.8-.36Z"/>
  <path class="st5" d="M313.1,365.88c-13.56-.45-26.51-3.57-38.45-9.56-17.84-8.95-30.42-25.54-34.93-44.87-1.81-7.74-2.43-15.1-2.59-23.06-.48-23.53,9.27-45.78,27-61.25,19.77-17.42,46.37-22.8,72.57-20.36l.02-60.77c0-1.29.74-1.95,1.96-2h39.17c.93.02,1.65.71,1.65,1.72l.02,183.96c0,7.09.71,13.69,1.1,20.62.08,1.38-.19,3.02-1.6,3.63-20.22,8.59-43.7,12.69-65.91,11.95Z"/>
  <path class="st5" d="M204.45,363.65h-37.73c-1.52.01-2.27-.83-2.49-2.39v-198.29c0-1.48.95-2.45,2.35-2.45l38.47.02c1.23,0,1.67,1.39,1.96,2.49v197.94c-.13,1.66-.97,2.68-2.57,2.68Z"/>
  <path class="st1" d="M328.95,328.64c-17.52,1.48-34.83-2.56-43.09-19.55-4-8.23-5.37-17.22-4.92-26.42.32-6.57,1.42-12.68,4.38-18.52,10.23-18.13,31.33-25.57,51.4-20.97l-.02,84.41c-2.61,1.14-5.16.83-7.75,1.05Z"/>
</svg>