<?xml version="1.0" encoding="UTF-8"?>
<svg id="Camada_1" xmlns="http://www.w3.org/2000/svg" version="1.1" viewBox="0 0 257.73 257.74">
  <!-- Generator: Adobe Illustrator 30.2.1, SVG Export Plug-In . SVG Version: 2.1.1 Build 1)  -->
  <defs>
    <style>
      .st0 {
        fill: #fff;
      }
    </style>
  </defs>
  <path class="st0" d="M116.31,97.88H0c8.06,84.42,75.44,151.8,159.86,159.86v-116.3c-16.54-12.34-31.22-27.02-43.55-43.56h0Z"/>
  <path class="st0" d="M28.97,0v17.02c0,13.01,1.18,25.76,3.44,38.13,3.48,19.04,9.51,37.21,17.73,54.12h38.74c-10.05-16.47-17.49-34.71-21.74-54.12-1.52-6.89-2.64-13.94-3.32-21.11h159.87v159.87c-8.94-.85-17.7-2.37-26.21-4.51-17.51-4.39-33.99-11.39-49.02-20.55v38.74c15.4,7.49,31.83,13.16,49.02,16.73,13.96,2.91,28.42,4.44,43.23,4.44h17.02V0H28.97Z"/>
</svg>