<?xml version="1.0" encoding="UTF-8"?>
<svg id="Camada_1" xmlns="http://www.w3.org/2000/svg" version="1.1" viewBox="0 0 540 540">
  <!-- Generator: Adobe Illustrator 30.2.1, SVG Export Plug-In . SVG Version: 2.1.1 Build 1)  -->
  <defs>
    <style>
      .st0 {
        fill: #fff;
      }
    </style>
  </defs>
  <path class="st0" d="M495.94,446.06c-15.22-.36-23.88-14.24-38.35-22.78-11.71-6.91-25.45-6.79-37.07.26-9.84,5.97-15.11,12.42-24.55,18.47-9.02,5.78-20,5.21-28.54-1.67,36.4-17.63,72.27-38.5,102.39-65.66,2.17-1.95,2.92-4.58,1.73-7.22-.92-2.04-3.02-3.65-6.02-3.45l-391.51,25.23c-2.41.16-3.93,1.66-4.73,3.1-.98,1.77-1.01,3.78-.07,5.58l12.19,23.42c-11.42,6.83-19.1,14.36-29.74,21.57-2.26,1.24-4.42,2.89-7.1,3.03-3.76.19-6.49,2.97-6.21,6.53.28,3.54,3.43,5.89,7.16,5.47,8.89-.99,17.69-8.42,24.76-13.98,5.16-4.06,10.18-7.9,15.68-11.41,2.01-1.28,3.93-2.03,6.17-3.01,2.95-1.3,6.13-3.71,9.73-3.08,2.78.49,5.14,2.97,7.18,4.8l12.94,11.61c9.7,8.7,22,14.07,35.22,14.95,7.14.48,13.83-2.34,19.75-5.92,8.61-5.2,15.39-12.97,24.24-18.25,7.93-4.73,17.04-4.68,24.93.11,9.5,5.77,15.46,13.21,25.88,19.25,11.36,6.58,24.6,6.58,35.97,0,10.19-5.89,16.01-13.09,25.56-19.05,7.98-4.98,17.18-5.08,25.27-.31,9.13,5.38,15.34,13.3,26.51,19.61,11.08,6.27,23.98,6.24,35.07,0,10.39-5.84,16.57-13.51,26.16-19.4,7.89-4.84,17.01-5,24.97-.29,14.27,8.44,23.6,23.64,43.38,24.42,3.59.14,6.46-2.09,6.75-5.54.26-3.12-2.13-6.29-5.69-6.38ZM356.87,432.1c-4.29-3.53-8.29-6.68-12.97-9.3-11.23-6.29-24.26-6.17-35.44.27-10.37,5.98-16.55,13.67-26.12,19.39-7.83,4.67-16.86,4.68-24.69,0-9.38-5.61-15.57-13.17-25.76-19.18-11.72-6.92-25.45-6.78-37.07.25-4.65,2.81-8.65,6.04-12.82,9.52-6.18,5.15-15.59,13.51-24.36,12.81-11-.88-20.86-5.71-28.92-12.93l-14.6-13.08c-3.57-3.2-7.89-5.48-12.78-5.64-3.13-.1-5.87,1.13-9.11,1.94l-7.99-15.61,361.27-23.24c.88-.41,2.5-.47,2.12.67-28.21,21.81-58.24,38.85-90.76,54.14Z"/>
  <path class="st0" d="M336.25,349.02c-4.73-28.84-13.62-56.56-26.24-83.08-32.6-68.5-88.82-127.6-152.46-168.17-15.71-10.02-31.89-18.68-48.84-25.99-2.62-1.13-5.37-.06-6.89,1.86-1.54,1.95-1.76,4.53-.3,7,14.55,24.61,26.27,50.58,34.24,78.16,20.87,72.19,11.49,142.1-35.34,201.63-2.03,2.57-1.91,5.86.11,8.02,2.04,2.19,5.09,2.56,7.82.88,69.88-42.92,144.24-43.24,219.26-13.26,2.49.99,4.79.84,6.77-.82,1.68-1.41,2.31-3.55,1.87-6.24ZM124.86,346.59c35.25-56.96,40.99-119.46,24.71-182.57-6.5-25.58-16.33-49.43-28.48-73.15,13.55,6.63,25.51,13.84,37.5,21.83,36.14,24.1,68.36,53.47,95.69,87.29,33.1,41.32,58.17,89.15,68.39,141.33-66.56-24.27-132.85-25.77-197.8,5.28Z"/>
  <path class="st0" d="M427.72,347.22c-19.18-63.4-59.45-124.61-106.92-170.57-24.3-23.52-55.51-47.2-87.75-57.77-3.21-1.05-6.32-.14-7.79,2.57-1.52,2.8-.73,6.09,2.04,8.03,71.12,49.45,111.5,131.66,134,213.12,1.07,3.86,4.45,5.46,8.21,4.45,11.5-3.1,23.23-3.03,34.56,1.37l15.49,6.02c2.35.91,4.84.46,6.44-1.06,1.61-1.52,2.45-3.71,1.71-6.16ZM371.41,334.4c-6.66-23.4-14.41-45.63-23.89-67.6-8.8-20.43-18.87-39.8-30.66-58.63-11.42-18.24-24.45-34.72-38.53-50.55-.66-.8-.37-1.09.52-.55,14.82,10.3,28.05,22.33,40.69,35.15,27.46,27.84,50.61,59.32,69.41,93.6,9.07,17.03,17.11,34.21,23.4,52.84-13.53-5.34-27.09-7.19-40.93-4.27Z"/>
</svg>