<?xml version="1.0" encoding="UTF-8"?>
<svg id="Camada_1" xmlns="http://www.w3.org/2000/svg" version="1.1" viewBox="0 0 540 540">
  <!-- Generator: Adobe Illustrator 30.2.1, SVG Export Plug-In . SVG Version: 2.1.1 Build 1)  -->
  <defs>
    <style>
      .st0 {
        fill: #001e36;
      }

      .st1 {
        fill: #31a8ff;
      }
    </style>
  </defs>
  <path class="st0" d="M421.31,495.69l-301.96.08c-44.63.01-80.89-36.96-80.89-81.41l.02-288.84c0-44.21,36.13-81.22,80.55-81.23l301.51-.06c44.58,0,81.02,36.81,81.01,81.3l-.02,289.17c0,43.81-35.88,80.98-80.21,80.99Z"/>
  <path class="st1" d="M278.85,266.57c-13.3,20.65-34.45,29.07-58.15,31.5-12.93,1.32-22.91.7-36,.57v62.34c-.01,1.44-1.08,2.43-2.49,2.43h-37.41c-1.17,0-2.07-.79-2.07-2.13v-199.32c0-1.14.79-1.76,1.74-1.78l46.69-.86c17.46-.32,33.53-.43,50.24,4.79,30.48,9.52,48.12,33.86,47.34,65.95-.31,12.85-2.89,25.63-9.9,36.51Z"/>
  <path class="st1" d="M413.45,344.25c-9.34,13.58-24.71,20.26-40.72,22.35-19.26,2.51-43.33.61-61.19-7.43-1.62-.73-2.69-2.01-2.69-3.91v-33.9c0-.58.35-1.07.61-1.29.33-.27,1.03-.49,1.56-.18,7.75,4.63,15.97,7.79,24.82,9.83,10.7,2.46,27.31,4.65,37.46.35,4.69-1.99,7.29-7.27,4.84-11.92-1.54-2.92-4.22-4.88-7.08-6.47-4.72-2.62-9.49-4.58-14.63-6.44-10.44-3.77-20.25-8.41-29.26-14.98-6.09-4.44-11.19-10.1-14.39-17.01-6.14-13.25-5.09-28.96,2.42-41.42,9.28-15.4,26.44-22.71,43.8-24.36,11.57-1.1,22.94-.48,34.46,1.13,6.2.87,11.94,2.33,17.57,4.9.94.43,1.43,1.72,1.43,2.81l.04,31.99c0,.84-.21,1.66-.81,2.02-.49.3-1.55.71-2.32.32-6.2-3.14-12.53-5.39-19.39-6.84-9.86-2.09-25.58-4.02-34.89-.22-4.95,2.02-7.15,8.03-4.26,12.51,1.69,2.61,4.22,4.49,6.92,5.9,4.62,2.42,9.04,4.71,13.99,6.47,10.67,3.78,20.74,8.38,30.24,14.64,6.04,3.98,11.01,9.15,14.44,15.51s4.61,13.07,4.61,20.16c0,9.15-2.41,17.93-7.6,25.47Z"/>
  <path class="st0" d="M242.14,246.39c-3.58,5.39-8.76,9.26-14.68,11.57-9.08,3.54-18.53,4.74-28.25,4.58-4.93-.08-9.62.16-14.52-.34v-64.78c6.83-.62,13.28-.45,19.94-.62,7.95-.2,15.51.79,22.95,3.57,13.4,5.07,19.82,16.86,18.87,30.97-.35,5.3-1.24,10.44-4.31,15.06Z"/>
</svg>